<?xml version="1.0" encoding="utf-8"?>
<!-- Generator: Adobe Illustrator 19.2.1, SVG Export Plug-In . SVG Version: 6.00 Build 0)  -->
<svg version="1.1" id="layer" xmlns="http://www.w3.org/2000/svg" xmlns:xlink="http://www.w3.org/1999/xlink" x="0px" y="0px"
	 viewBox="0 0 652 652" style="enable-background:new 0 0 652 652;" xml:space="preserve">
<style type="text/css">
	.st0{fill:#2196F3;}
</style>
<g>
	<path class="st0" d="M140.2,350.7c0,19-15.3,34.4-34.3,34.4H95.7c-18.9,0-34.3-15.4-34.3-34.4V316c0-19,15.3-34.4,34.3-34.4h10.3
		c18.9,0,34.3,15.4,34.3,34.4V350.7z M168.9,296.5h5.8v-20c0-14.9-9.6-24.3-24.5-24.3H51.4c-14.9,0-24.5,9.4-24.5,24.3v20h5.8
		c10.8,0,18.8,9.4,18.8,19.7v19.7c0,10.3-8,19.7-18.8,19.7h-5.8v20c0,14.9,9.6,24.3,24.5,24.3h98.8c14.9,0,24.5-9.4,24.5-24.3v-20
		h-5.8c-10.8,0-18.8-9.4-18.8-19.7v-19.7C150,305.8,158,296.5,168.9,296.5z"/>
	<path class="st0" d="M125.4,335.8c0,10.3-10.8,19.7-21.6,19.7h-6c-10.8,0-21.6-9.4-21.6-19.7v-19.7c0-10.3,10.8-19.7,21.6-19.7h6
		c10.9,0,21.6,9.4,21.6,19.7V335.8z M105.9,286.6H95c-15.8,0-28.7,14.4-28.7,30.2V350c0,15.8,12.9,30.2,28.7,30.2h10.9
		c15.8,0,29.3-14.4,29.3-30.2v-33.2C135.3,301,121.7,286.6,105.9,286.6z"/>
	<path class="st0" d="M103.1,345.3h-0.6c-8.2,0-16-4.8-16-13.2v-8c0,0,0-2.9-2.7-2.9c-2.7,0-2.7,2.9-2.7,2.9v8
		c0,11.4,10.2,18.6,21.4,18.6h0.6c0,0,2.6,0,2.6-2.6C105.7,345.4,103.1,345.3,103.1,345.3"/>
</g>
<g>
	<path class="st0" d="M270.8,359.5h-8.1v-5.2c-0.7,0.5-1.7,1.2-2.9,2.1c-1.2,0.9-2.4,1.6-3.6,2.1c-1.4,0.7-2.9,1.2-4.7,1.7
		c-1.8,0.4-3.8,0.7-6.2,0.7c-4.4,0-8.1-1.4-11.1-4.3c-3-2.9-4.5-6.6-4.5-11c0-3.7,0.8-6.6,2.4-8.9c1.6-2.3,3.8-4,6.7-5.3
		c2.9-1.3,6.5-2.2,10.6-2.6c4.1-0.5,8.6-0.8,13.3-1v-1.3c0-1.8-0.3-3.4-1-4.6c-0.7-1.2-1.6-2.2-2.8-2.9c-1.2-0.7-2.5-1.1-4.2-1.3
		c-1.6-0.2-3.3-0.3-5.1-0.3c-2.1,0-4.5,0.3-7.1,0.8c-2.6,0.6-5.3,1.4-8.1,2.4H234v-8.3c1.6-0.4,3.9-0.9,6.9-1.4s6-0.8,8.9-0.8
		c3.4,0,6.4,0.3,8.9,0.8c2.5,0.6,4.7,1.5,6.6,2.9c1.8,1.3,3.2,3,4.2,5.2c1,2.1,1.4,4.7,1.4,7.8V359.5z M262.7,347.6v-13.5
		c-2.5,0.1-5.4,0.4-8.8,0.6c-3.4,0.3-6,0.7-8,1.3c-2.3,0.7-4.2,1.7-5.7,3.1c-1.4,1.4-2.2,3.3-2.2,5.8c0,2.8,0.8,4.9,2.5,6.3
		c1.7,1.4,4.2,2.1,7.7,2.1c2.9,0,5.5-0.6,7.8-1.7C258.5,350.5,260.7,349.1,262.7,347.6z"/>
	<path class="st0" d="M327.6,311.1L308,359.5h-8.2l-19.4-48.4h8.8l15,38.5l14.8-38.5H327.6z"/>
	<path class="st0" d="M347,303h-9.2v-8.4h9.2V303z M346.5,359.5h-8.1v-48.4h8.1V359.5z"/>
	<path class="st0" d="M400.1,359.5h-8.1v-5.2c-0.7,0.5-1.7,1.2-2.9,2.1c-1.2,0.9-2.4,1.6-3.6,2.1c-1.4,0.7-2.9,1.2-4.7,1.7
		c-1.8,0.4-3.8,0.7-6.2,0.7c-4.4,0-8.1-1.4-11.1-4.3c-3-2.9-4.5-6.6-4.5-11c0-3.7,0.8-6.6,2.4-8.9c1.6-2.3,3.8-4,6.7-5.3
		c2.9-1.3,6.5-2.2,10.6-2.6s8.6-0.8,13.3-1v-1.3c0-1.8-0.3-3.4-1-4.6c-0.7-1.2-1.6-2.2-2.8-2.9c-1.2-0.7-2.5-1.1-4.2-1.3
		c-1.6-0.2-3.3-0.3-5.1-0.3c-2.1,0-4.5,0.3-7.1,0.8c-2.6,0.6-5.3,1.4-8.1,2.4h-0.4v-8.3c1.6-0.4,3.9-0.9,6.9-1.4s6-0.8,8.9-0.8
		c3.4,0,6.4,0.3,8.9,0.8c2.5,0.6,4.7,1.5,6.6,2.9c1.8,1.3,3.2,3,4.2,5.2c1,2.1,1.4,4.7,1.4,7.8V359.5z M392.1,347.6v-13.5
		c-2.5,0.1-5.4,0.4-8.8,0.6c-3.4,0.3-6,0.7-8,1.3c-2.3,0.7-4.2,1.7-5.7,3.1s-2.2,3.3-2.2,5.8c0,2.8,0.8,4.9,2.5,6.3s4.2,2.1,7.7,2.1
		c2.9,0,5.5-0.6,7.8-1.7S390,349.1,392.1,347.6z"/>
	<path class="st0" d="M450.4,345.6c0,4.4-1.8,8-5.5,10.9s-8.6,4.2-15,4.2c-3.6,0-6.9-0.4-9.8-1.3c-3-0.9-5.5-1.8-7.5-2.8v-9.1h0.4
		c2.6,1.9,5.4,3.5,8.6,4.6c3.1,1.1,6.2,1.7,9,1.7c3.6,0,6.4-0.6,8.4-1.7c2-1.2,3-3,3-5.5c0-1.9-0.5-3.3-1.6-4.3
		c-1.1-1-3.2-1.8-6.3-2.5c-1.2-0.3-2.7-0.6-4.5-0.9c-1.9-0.3-3.6-0.7-5.1-1.1c-4.2-1.1-7.2-2.8-9-5c-1.8-2.2-2.7-4.9-2.7-8
		c0-2,0.4-3.9,1.2-5.6c0.8-1.8,2.1-3.3,3.7-4.7c1.6-1.4,3.7-2.4,6.2-3.2c2.5-0.8,5.3-1.2,8.4-1.2c2.9,0,5.8,0.4,8.8,1.1
		c3,0.7,5.4,1.6,7.4,2.6v8.7H448c-2.1-1.5-4.6-2.8-7.6-3.9c-3-1.1-5.9-1.6-8.7-1.6c-3,0-5.5,0.6-7.5,1.7c-2,1.1-3.1,2.8-3.1,5.1
		c0,2,0.6,3.5,1.9,4.5c1.2,1,3.2,1.8,5.9,2.5c1.5,0.3,3.2,0.7,5,1c1.9,0.3,3.4,0.7,4.7,1c3.8,0.9,6.7,2.4,8.7,4.5
		C449.3,339.2,450.4,342,450.4,345.6z"/>
	<path class="st0" d="M499.6,359.5h-8.1v-5.2c-0.7,0.5-1.7,1.2-2.9,2.1c-1.2,0.9-2.4,1.6-3.6,2.1c-1.4,0.7-2.9,1.2-4.7,1.7
		c-1.8,0.4-3.8,0.7-6.2,0.7c-4.4,0-8.1-1.4-11.1-4.3c-3-2.9-4.5-6.6-4.5-11c0-3.7,0.8-6.6,2.4-8.9c1.6-2.3,3.8-4,6.7-5.3
		c2.9-1.3,6.5-2.2,10.6-2.6c4.1-0.5,8.6-0.8,13.3-1v-1.3c0-1.8-0.3-3.4-1-4.6c-0.7-1.2-1.6-2.2-2.8-2.9c-1.2-0.7-2.5-1.1-4.2-1.3
		c-1.6-0.2-3.3-0.3-5.1-0.3c-2.1,0-4.5,0.3-7.1,0.8c-2.6,0.6-5.3,1.4-8.1,2.4h-0.4v-8.3c1.6-0.4,3.9-0.9,6.9-1.4
		c3-0.5,6-0.8,8.9-0.8c3.4,0,6.4,0.3,8.9,0.8c2.5,0.6,4.7,1.5,6.6,2.9c1.8,1.3,3.2,3,4.2,5.2s1.4,4.7,1.4,7.8V359.5z M491.5,347.6
		v-13.5c-2.5,0.1-5.4,0.4-8.8,0.6c-3.4,0.3-6,0.7-8,1.3c-2.3,0.7-4.2,1.7-5.7,3.1c-1.4,1.4-2.2,3.3-2.2,5.8c0,2.8,0.8,4.9,2.5,6.3
		s4.2,2.1,7.7,2.1c2.9,0,5.5-0.6,7.8-1.7S489.5,349.1,491.5,347.6z"/>
	<path class="st0" d="M523.5,359.5h-8.1v-67.4h8.1V359.5z"/>
	<path class="st0" d="M580,336.2h-35.6c0,3,0.4,5.6,1.3,7.8c0.9,2.2,2.1,4,3.7,5.4c1.5,1.4,3.3,2.4,5.3,3.1c2.1,0.7,4.3,1,6.8,1
		c3.3,0,6.6-0.7,9.9-2c3.3-1.3,5.7-2.6,7.1-3.9h0.4v8.9c-2.7,1.2-5.5,2.1-8.4,2.9c-2.9,0.8-5.9,1.2-9,1.2c-8,0-14.3-2.2-18.8-6.5
		c-4.5-4.3-6.8-10.5-6.8-18.5c0-7.9,2.2-14.2,6.5-18.8c4.3-4.6,10-7,17-7c6.5,0,11.5,1.9,15.1,5.7c3.5,3.8,5.3,9.2,5.3,16.2V336.2z
		 M572.1,329.9c0-4.3-1.1-7.6-3.2-9.9c-2.1-2.3-5.3-3.5-9.7-3.5c-4.4,0-7.8,1.3-10.4,3.9s-4,5.8-4.4,9.6H572.1z"/>
	<path class="st0" d="M626.9,345.6c0,4.4-1.8,8-5.5,10.9s-8.6,4.2-15,4.2c-3.6,0-6.9-0.4-9.8-1.3c-3-0.9-5.5-1.8-7.5-2.8v-9.1h0.4
		c2.6,1.9,5.4,3.5,8.6,4.6c3.1,1.1,6.2,1.7,9,1.7c3.6,0,6.4-0.6,8.4-1.7c2-1.2,3-3,3-5.5c0-1.9-0.5-3.3-1.6-4.3s-3.2-1.8-6.3-2.5
		c-1.2-0.3-2.7-0.6-4.5-0.9c-1.9-0.3-3.6-0.7-5.1-1.1c-4.2-1.1-7.2-2.8-9-5c-1.8-2.2-2.7-4.9-2.7-8c0-2,0.4-3.9,1.2-5.6
		c0.8-1.8,2.1-3.3,3.7-4.7c1.6-1.4,3.7-2.4,6.2-3.2c2.5-0.8,5.3-1.2,8.4-1.2c2.9,0,5.8,0.4,8.8,1.1c3,0.7,5.4,1.6,7.4,2.6v8.7h-0.4
		c-2.1-1.5-4.6-2.8-7.6-3.9c-3-1.1-5.9-1.6-8.7-1.6c-3,0-5.5,0.6-7.5,1.7c-2,1.1-3.1,2.8-3.1,5.1c0,2,0.6,3.5,1.9,4.5
		c1.2,1,3.2,1.8,5.9,2.5c1.5,0.3,3.2,0.7,5,1c1.9,0.3,3.4,0.7,4.7,1c3.8,0.9,6.7,2.4,8.7,4.5C625.9,339.2,626.9,342,626.9,345.6z"/>
</g>
</svg>
