<svg width="428" height="402" viewBox="0 0 428 402" fill="none" xmlns="http://www.w3.org/2000/svg">
<g filter="url(#filter0_d_1_121)">
<rect x="70" y="50" width="288" height="262" fill="white"/>
</g>
<path d="M104.184 176.848H101.376V178.672C101.499 178.501 101.68 178.363 101.92 178.256C102.16 178.144 102.419 178.088 102.696 178.088C103.139 178.088 103.499 178.181 103.776 178.368C104.053 178.549 104.251 178.787 104.368 179.08C104.491 179.368 104.552 179.675 104.552 180C104.552 180.384 104.48 180.728 104.336 181.032C104.192 181.336 103.971 181.576 103.672 181.752C103.379 181.928 103.013 182.016 102.576 182.016C102.016 182.016 101.563 181.872 101.216 181.584C100.869 181.296 100.659 180.912 100.584 180.432H101.296C101.365 180.736 101.512 180.973 101.736 181.144C101.96 181.315 102.243 181.4 102.584 181.4C103.005 181.4 103.323 181.275 103.536 181.024C103.749 180.768 103.856 180.432 103.856 180.016C103.856 179.6 103.749 179.28 103.536 179.056C103.323 178.827 103.008 178.712 102.592 178.712C102.309 178.712 102.061 178.781 101.848 178.92C101.64 179.053 101.488 179.237 101.392 179.472H100.704V176.208H104.184V176.848ZM105.519 179.048C105.519 178.131 105.669 177.416 105.967 176.904C106.266 176.387 106.789 176.128 107.535 176.128C108.277 176.128 108.797 176.387 109.095 176.904C109.394 177.416 109.543 178.131 109.543 179.048C109.543 179.981 109.394 180.707 109.095 181.224C108.797 181.741 108.277 182 107.535 182C106.789 182 106.266 181.741 105.967 181.224C105.669 180.707 105.519 179.981 105.519 179.048ZM108.823 179.048C108.823 178.584 108.791 178.192 108.727 177.872C108.669 177.547 108.543 177.285 108.351 177.088C108.165 176.891 107.893 176.792 107.535 176.792C107.173 176.792 106.895 176.891 106.703 177.088C106.517 177.285 106.391 177.547 106.327 177.872C106.269 178.192 106.239 178.584 106.239 179.048C106.239 179.528 106.269 179.931 106.327 180.256C106.391 180.581 106.517 180.843 106.703 181.04C106.895 181.237 107.173 181.336 107.535 181.336C107.893 181.336 108.165 181.237 108.351 181.04C108.543 180.843 108.669 180.581 108.727 180.256C108.791 179.931 108.823 179.528 108.823 179.048ZM113.111 182L111.391 180.064V182H110.663V176.08H111.391V179.56L113.079 177.616H114.095L112.031 179.8L114.103 182H113.111Z" fill="#8C93A4"/>
<path d="M126.384 283.056C126.016 283.056 125.685 282.992 125.392 282.864C125.104 282.731 124.877 282.549 124.712 282.32C124.547 282.085 124.461 281.816 124.456 281.512H125.232C125.259 281.773 125.365 281.995 125.552 282.176C125.744 282.352 126.021 282.44 126.384 282.44C126.731 282.44 127.003 282.355 127.2 282.184C127.403 282.008 127.504 281.784 127.504 281.512C127.504 281.299 127.445 281.125 127.328 280.992C127.211 280.859 127.064 280.757 126.888 280.688C126.712 280.619 126.475 280.544 126.176 280.464C125.808 280.368 125.512 280.272 125.288 280.176C125.069 280.08 124.88 279.931 124.72 279.728C124.565 279.52 124.488 279.243 124.488 278.896C124.488 278.592 124.565 278.323 124.72 278.088C124.875 277.853 125.091 277.672 125.368 277.544C125.651 277.416 125.973 277.352 126.336 277.352C126.859 277.352 127.285 277.483 127.616 277.744C127.952 278.005 128.141 278.352 128.184 278.784H127.384C127.357 278.571 127.245 278.384 127.048 278.224C126.851 278.059 126.589 277.976 126.264 277.976C125.96 277.976 125.712 278.056 125.52 278.216C125.328 278.371 125.232 278.589 125.232 278.872C125.232 279.075 125.288 279.24 125.4 279.368C125.517 279.496 125.659 279.595 125.824 279.664C125.995 279.728 126.232 279.803 126.536 279.888C126.904 279.989 127.2 280.091 127.424 280.192C127.648 280.288 127.84 280.44 128 280.648C128.16 280.851 128.24 281.128 128.24 281.48C128.24 281.752 128.168 282.008 128.024 282.248C127.88 282.488 127.667 282.683 127.384 282.832C127.101 282.981 126.768 283.056 126.384 283.056ZM133.199 278.616V283H132.471V282.352C132.333 282.576 132.138 282.752 131.887 282.88C131.642 283.003 131.37 283.064 131.071 283.064C130.73 283.064 130.423 282.995 130.151 282.856C129.879 282.712 129.663 282.499 129.503 282.216C129.349 281.933 129.271 281.589 129.271 281.184V278.616H129.991V281.088C129.991 281.52 130.101 281.853 130.319 282.088C130.538 282.317 130.837 282.432 131.215 282.432C131.605 282.432 131.911 282.312 132.135 282.072C132.359 281.832 132.471 281.483 132.471 281.024V278.616H133.199ZM136.565 278.536C137.098 278.536 137.53 278.699 137.861 279.024C138.191 279.344 138.357 279.808 138.357 280.416V283H137.637V280.52C137.637 280.083 137.527 279.749 137.309 279.52C137.09 279.285 136.791 279.168 136.413 279.168C136.029 279.168 135.722 279.288 135.493 279.528C135.269 279.768 135.157 280.117 135.157 280.576V283H134.429V278.616H135.157V279.24C135.301 279.016 135.495 278.843 135.741 278.72C135.991 278.597 136.266 278.536 136.565 278.536Z" fill="#8C93A4"/>
<path d="M163.272 277.464V283H162.544V278.872L160.704 283H160.192L158.344 278.864V283H157.616V277.464H158.4L160.448 282.04L162.496 277.464H163.272ZM166.419 283.072C166.008 283.072 165.635 282.979 165.299 282.792C164.968 282.605 164.707 282.341 164.515 282C164.328 281.653 164.235 281.253 164.235 280.8C164.235 280.352 164.331 279.957 164.523 279.616C164.72 279.269 164.987 279.005 165.323 278.824C165.659 278.637 166.035 278.544 166.451 278.544C166.867 278.544 167.243 278.637 167.579 278.824C167.915 279.005 168.179 279.267 168.371 279.608C168.568 279.949 168.667 280.347 168.667 280.8C168.667 281.253 168.565 281.653 168.363 282C168.165 282.341 167.896 282.605 167.555 282.792C167.213 282.979 166.835 283.072 166.419 283.072ZM166.419 282.432C166.68 282.432 166.925 282.371 167.155 282.248C167.384 282.125 167.568 281.941 167.707 281.696C167.851 281.451 167.923 281.152 167.923 280.8C167.923 280.448 167.853 280.149 167.715 279.904C167.576 279.659 167.395 279.477 167.171 279.36C166.947 279.237 166.704 279.176 166.443 279.176C166.176 279.176 165.931 279.237 165.707 279.36C165.488 279.477 165.312 279.659 165.179 279.904C165.045 280.149 164.979 280.448 164.979 280.8C164.979 281.157 165.043 281.459 165.171 281.704C165.304 281.949 165.48 282.133 165.699 282.256C165.917 282.373 166.157 282.432 166.419 282.432ZM171.76 278.536C172.293 278.536 172.725 278.699 173.056 279.024C173.386 279.344 173.552 279.808 173.552 280.416V283H172.832V280.52C172.832 280.083 172.722 279.749 172.504 279.52C172.285 279.285 171.986 279.168 171.608 279.168C171.224 279.168 170.917 279.288 170.688 279.528C170.464 279.768 170.352 280.117 170.352 280.576V283H169.624V278.616H170.352V279.24C170.496 279.016 170.69 278.843 170.936 278.72C171.186 278.597 171.461 278.536 171.76 278.536Z" fill="#8C93A4"/>
<path d="M195.048 277.424V278.016H193.528V283H192.8V278.016H191.272V277.424H195.048ZM199.832 278.616V283H199.104V282.352C198.965 282.576 198.771 282.752 198.52 282.88C198.275 283.003 198.003 283.064 197.704 283.064C197.363 283.064 197.056 282.995 196.784 282.856C196.512 282.712 196.296 282.499 196.136 282.216C195.981 281.933 195.904 281.589 195.904 281.184V278.616H196.624V281.088C196.624 281.52 196.733 281.853 196.952 282.088C197.171 282.317 197.469 282.432 197.848 282.432C198.237 282.432 198.544 282.312 198.768 282.072C198.992 281.832 199.104 281.483 199.104 281.024V278.616H199.832Z" fill="#8C93A4"/>
<path d="M228.624 277.424L227.008 283H226.192L224.896 278.512L223.552 283L222.744 283.008L221.184 277.424H221.96L223.176 282.152L224.52 277.424H225.336L226.616 282.136L227.84 277.424H228.624ZM233.421 280.64C233.421 280.779 233.413 280.925 233.397 281.08H229.893C229.919 281.512 230.066 281.851 230.333 282.096C230.605 282.336 230.933 282.456 231.317 282.456C231.631 282.456 231.893 282.384 232.101 282.24C232.314 282.091 232.463 281.893 232.549 281.648H233.333C233.215 282.069 232.981 282.413 232.629 282.68C232.277 282.941 231.839 283.072 231.317 283.072C230.901 283.072 230.527 282.979 230.197 282.792C229.871 282.605 229.615 282.341 229.429 282C229.242 281.653 229.149 281.253 229.149 280.8C229.149 280.347 229.239 279.949 229.421 279.608C229.602 279.267 229.855 279.005 230.181 278.824C230.511 278.637 230.89 278.544 231.317 278.544C231.733 278.544 232.101 278.635 232.421 278.816C232.741 278.997 232.986 279.248 233.157 279.568C233.333 279.883 233.421 280.24 233.421 280.64ZM232.669 280.488C232.669 280.211 232.607 279.973 232.485 279.776C232.362 279.573 232.194 279.421 231.981 279.32C231.773 279.213 231.541 279.16 231.285 279.16C230.917 279.16 230.602 279.277 230.341 279.512C230.085 279.747 229.938 280.072 229.901 280.488H232.669ZM234.11 280.792C234.11 280.344 234.2 279.952 234.382 279.616C234.563 279.275 234.811 279.011 235.126 278.824C235.446 278.637 235.803 278.544 236.198 278.544C236.539 278.544 236.856 278.624 237.15 278.784C237.443 278.939 237.667 279.144 237.822 279.4V277.08H238.558V283H237.822V282.176C237.678 282.437 237.464 282.653 237.182 282.824C236.899 282.989 236.568 283.072 236.19 283.072C235.8 283.072 235.446 282.976 235.126 282.784C234.811 282.592 234.563 282.323 234.382 281.976C234.2 281.629 234.11 281.235 234.11 280.792ZM237.822 280.8C237.822 280.469 237.755 280.181 237.622 279.936C237.488 279.691 237.307 279.504 237.078 279.376C236.854 279.243 236.606 279.176 236.334 279.176C236.062 279.176 235.814 279.24 235.59 279.368C235.366 279.496 235.187 279.683 235.054 279.928C234.92 280.173 234.854 280.461 234.854 280.792C234.854 281.128 234.92 281.421 235.054 281.672C235.187 281.917 235.366 282.107 235.59 282.24C235.814 282.368 236.062 282.432 236.334 282.432C236.606 282.432 236.854 282.368 237.078 282.24C237.307 282.107 237.488 281.917 237.622 281.672C237.755 281.421 237.822 281.131 237.822 280.8Z" fill="#8C93A4"/>
<path d="M257.048 277.424V278.016H255.528V283H254.8V278.016H253.272V277.424H257.048ZM260.12 278.536C260.451 278.536 260.749 278.608 261.016 278.752C261.283 278.891 261.491 279.101 261.64 279.384C261.795 279.667 261.872 280.011 261.872 280.416V283H261.152V280.52C261.152 280.083 261.043 279.749 260.824 279.52C260.605 279.285 260.307 279.168 259.928 279.168C259.544 279.168 259.237 279.288 259.008 279.528C258.784 279.768 258.672 280.117 258.672 280.576V283H257.944V277.08H258.672V279.24C258.816 279.016 259.013 278.843 259.264 278.72C259.52 278.597 259.805 278.536 260.12 278.536ZM266.949 278.616V283H266.221V282.352C266.083 282.576 265.888 282.752 265.637 282.88C265.392 283.003 265.12 283.064 264.821 283.064C264.48 283.064 264.173 282.995 263.901 282.856C263.629 282.712 263.413 282.499 263.253 282.216C263.099 281.933 263.021 281.589 263.021 281.184V278.616H263.741V281.088C263.741 281.52 263.851 281.853 264.069 282.088C264.288 282.317 264.587 282.432 264.965 282.432C265.355 282.432 265.661 282.312 265.885 282.072C266.109 281.832 266.221 281.483 266.221 281.024V278.616H266.949Z" fill="#8C93A4"/>
<path d="M292.768 277.424V278.016H290.344V279.896H292.312V280.488H290.344V283H289.616V277.424H292.768ZM294.375 279.328C294.503 279.077 294.685 278.883 294.919 278.744C295.159 278.605 295.45 278.536 295.791 278.536V279.288H295.599C294.783 279.288 294.375 279.731 294.375 280.616V283H293.647V278.616H294.375V279.328ZM297.008 277.904C296.869 277.904 296.752 277.856 296.656 277.76C296.56 277.664 296.512 277.547 296.512 277.408C296.512 277.269 296.56 277.152 296.656 277.056C296.752 276.96 296.869 276.912 297.008 276.912C297.141 276.912 297.253 276.96 297.344 277.056C297.44 277.152 297.488 277.269 297.488 277.408C297.488 277.547 297.44 277.664 297.344 277.76C297.253 277.856 297.141 277.904 297.008 277.904ZM297.36 278.616V283H296.632V278.616H297.36Z" fill="#8C93A4"/>
<path d="M321.384 283.056C321.016 283.056 320.685 282.992 320.392 282.864C320.104 282.731 319.877 282.549 319.712 282.32C319.547 282.085 319.461 281.816 319.456 281.512H320.232C320.259 281.773 320.365 281.995 320.552 282.176C320.744 282.352 321.021 282.44 321.384 282.44C321.731 282.44 322.003 282.355 322.2 282.184C322.403 282.008 322.504 281.784 322.504 281.512C322.504 281.299 322.445 281.125 322.328 280.992C322.211 280.859 322.064 280.757 321.888 280.688C321.712 280.619 321.475 280.544 321.176 280.464C320.808 280.368 320.512 280.272 320.288 280.176C320.069 280.08 319.88 279.931 319.72 279.728C319.565 279.52 319.488 279.243 319.488 278.896C319.488 278.592 319.565 278.323 319.72 278.088C319.875 277.853 320.091 277.672 320.368 277.544C320.651 277.416 320.973 277.352 321.336 277.352C321.859 277.352 322.285 277.483 322.616 277.744C322.952 278.005 323.141 278.352 323.184 278.784H322.384C322.357 278.571 322.245 278.384 322.048 278.224C321.851 278.059 321.589 277.976 321.264 277.976C320.96 277.976 320.712 278.056 320.52 278.216C320.328 278.371 320.232 278.589 320.232 278.872C320.232 279.075 320.288 279.24 320.4 279.368C320.517 279.496 320.659 279.595 320.824 279.664C320.995 279.728 321.232 279.803 321.536 279.888C321.904 279.989 322.2 280.091 322.424 280.192C322.648 280.288 322.84 280.44 323 280.648C323.16 280.851 323.24 281.128 323.24 281.48C323.24 281.752 323.168 282.008 323.024 282.248C322.88 282.488 322.667 282.683 322.384 282.832C322.101 282.981 321.768 283.056 321.384 283.056ZM324.039 280.792C324.039 280.344 324.13 279.952 324.311 279.616C324.493 279.275 324.741 279.011 325.055 278.824C325.375 278.637 325.73 278.544 326.119 278.544C326.503 278.544 326.837 278.627 327.119 278.792C327.402 278.957 327.613 279.165 327.751 279.416V278.616H328.487V283H327.751V282.184C327.607 282.44 327.391 282.653 327.103 282.824C326.821 282.989 326.49 283.072 326.111 283.072C325.722 283.072 325.37 282.976 325.055 282.784C324.741 282.592 324.493 282.323 324.311 281.976C324.13 281.629 324.039 281.235 324.039 280.792ZM327.751 280.8C327.751 280.469 327.685 280.181 327.551 279.936C327.418 279.691 327.237 279.504 327.007 279.376C326.783 279.243 326.535 279.176 326.263 279.176C325.991 279.176 325.743 279.24 325.519 279.368C325.295 279.496 325.117 279.683 324.983 279.928C324.85 280.173 324.783 280.461 324.783 280.792C324.783 281.128 324.85 281.421 324.983 281.672C325.117 281.917 325.295 282.107 325.519 282.24C325.743 282.368 325.991 282.432 326.263 282.432C326.535 282.432 326.783 282.368 327.007 282.24C327.237 282.107 327.418 281.917 327.551 281.672C327.685 281.421 327.751 281.131 327.751 280.8ZM330.606 279.216V281.8C330.606 282.013 330.651 282.165 330.742 282.256C330.832 282.341 330.99 282.384 331.214 282.384H331.75V283H331.094C330.688 283 330.384 282.907 330.182 282.72C329.979 282.533 329.878 282.227 329.878 281.8V279.216H329.31V278.616H329.878V277.512H330.606V278.616H331.75V279.216H330.606Z" fill="#8C93A4"/>
<path d="M100.48 205.672C100.517 205.181 100.707 204.797 101.048 204.52C101.389 204.243 101.832 204.104 102.376 204.104C102.739 204.104 103.051 204.171 103.312 204.304C103.579 204.432 103.779 204.608 103.912 204.832C104.051 205.056 104.12 205.309 104.12 205.592C104.12 205.923 104.024 206.208 103.832 206.448C103.645 206.688 103.4 206.843 103.096 206.912V206.952C103.443 207.037 103.717 207.205 103.92 207.456C104.123 207.707 104.224 208.035 104.224 208.44C104.224 208.744 104.155 209.019 104.016 209.264C103.877 209.504 103.669 209.693 103.392 209.832C103.115 209.971 102.781 210.04 102.392 210.04C101.827 210.04 101.363 209.893 101 209.6C100.637 209.301 100.435 208.88 100.392 208.336H101.096C101.133 208.656 101.264 208.917 101.488 209.12C101.712 209.323 102.011 209.424 102.384 209.424C102.757 209.424 103.04 209.328 103.232 209.136C103.429 208.939 103.528 208.685 103.528 208.376C103.528 207.976 103.395 207.688 103.128 207.512C102.861 207.336 102.459 207.248 101.92 207.248H101.736V206.64H101.928C102.419 206.635 102.789 206.555 103.04 206.4C103.291 206.24 103.416 205.995 103.416 205.664C103.416 205.381 103.323 205.155 103.136 204.984C102.955 204.813 102.693 204.728 102.352 204.728C102.021 204.728 101.755 204.813 101.552 204.984C101.349 205.155 101.229 205.384 101.192 205.672H100.48ZM105.207 207.048C105.207 206.131 105.356 205.416 105.655 204.904C105.954 204.387 106.476 204.128 107.223 204.128C107.964 204.128 108.484 204.387 108.783 204.904C109.082 205.416 109.231 206.131 109.231 207.048C109.231 207.981 109.082 208.707 108.783 209.224C108.484 209.741 107.964 210 107.223 210C106.476 210 105.954 209.741 105.655 209.224C105.356 208.707 105.207 207.981 105.207 207.048ZM108.511 207.048C108.511 206.584 108.479 206.192 108.415 205.872C108.356 205.547 108.231 205.285 108.039 205.088C107.852 204.891 107.58 204.792 107.223 204.792C106.86 204.792 106.583 204.891 106.391 205.088C106.204 205.285 106.079 205.547 106.015 205.872C105.956 206.192 105.927 206.584 105.927 207.048C105.927 207.528 105.956 207.931 106.015 208.256C106.079 208.581 106.204 208.843 106.391 209.04C106.583 209.237 106.86 209.336 107.223 209.336C107.58 209.336 107.852 209.237 108.039 209.04C108.231 208.843 108.356 208.581 108.415 208.256C108.479 207.931 108.511 207.528 108.511 207.048ZM112.798 210L111.078 208.064V210H110.35V204.08H111.078V207.56L112.766 205.616H113.782L111.718 207.8L113.79 210H112.798Z" fill="#8C93A4"/>
<path d="M100.304 232.88V232.216H101.808V238H101.072V232.88H100.304ZM106.747 232.848H103.939V234.672C104.061 234.501 104.243 234.363 104.483 234.256C104.723 234.144 104.981 234.088 105.259 234.088C105.701 234.088 106.061 234.181 106.339 234.368C106.616 234.549 106.813 234.787 106.931 235.08C107.053 235.368 107.115 235.675 107.115 236C107.115 236.384 107.043 236.728 106.899 237.032C106.755 237.336 106.533 237.576 106.235 237.752C105.941 237.928 105.576 238.016 105.139 238.016C104.579 238.016 104.125 237.872 103.779 237.584C103.432 237.296 103.221 236.912 103.147 236.432H103.859C103.928 236.736 104.075 236.973 104.299 237.144C104.523 237.315 104.805 237.4 105.147 237.4C105.568 237.4 105.885 237.275 106.099 237.024C106.312 236.768 106.419 236.432 106.419 236.016C106.419 235.6 106.312 235.28 106.099 235.056C105.885 234.827 105.571 234.712 105.155 234.712C104.872 234.712 104.624 234.781 104.411 234.92C104.203 235.053 104.051 235.237 103.955 235.472H103.267V232.208H106.747V232.848ZM110.65 238L108.93 236.064V238H108.202V232.08H108.93V235.56L110.618 233.616H111.634L109.57 235.8L111.642 238H110.65Z" fill="#8C93A4"/>
<path d="M104.184 260.848H101.376V262.672C101.499 262.501 101.68 262.363 101.92 262.256C102.16 262.144 102.419 262.088 102.696 262.088C103.139 262.088 103.499 262.181 103.776 262.368C104.053 262.549 104.251 262.787 104.368 263.08C104.491 263.368 104.552 263.675 104.552 264C104.552 264.384 104.48 264.728 104.336 265.032C104.192 265.336 103.971 265.576 103.672 265.752C103.379 265.928 103.013 266.016 102.576 266.016C102.016 266.016 101.563 265.872 101.216 265.584C100.869 265.296 100.659 264.912 100.584 264.432H101.296C101.365 264.736 101.512 264.973 101.736 265.144C101.96 265.315 102.243 265.4 102.584 265.4C103.005 265.4 103.323 265.275 103.536 265.024C103.749 264.768 103.856 264.432 103.856 264.016C103.856 263.6 103.749 263.28 103.536 263.056C103.323 262.827 103.008 262.712 102.592 262.712C102.309 262.712 102.061 262.781 101.848 262.92C101.64 263.053 101.488 263.237 101.392 263.472H100.704V260.208H104.184V260.848ZM108.087 266L106.367 264.064V266H105.639V260.08H106.367V263.56L108.055 261.616H109.071L107.007 263.8L109.079 266H108.087Z" fill="#8C93A4"/>
<path d="M105.836 91.636L102.68 100H101.42L98.264 91.636H99.428L102.056 98.848L104.684 91.636H105.836ZM107.597 92.356C107.389 92.356 107.213 92.284 107.069 92.14C106.925 91.996 106.853 91.82 106.853 91.612C106.853 91.404 106.925 91.228 107.069 91.084C107.213 90.94 107.389 90.868 107.597 90.868C107.797 90.868 107.965 90.94 108.101 91.084C108.245 91.228 108.317 91.404 108.317 91.612C108.317 91.82 108.245 91.996 108.101 92.14C107.965 92.284 107.797 92.356 107.597 92.356ZM108.125 93.424V100H107.033V93.424H108.125ZM112.315 100.108C111.811 100.108 111.359 100.024 110.959 99.856C110.559 99.68 110.243 99.44 110.011 99.136C109.779 98.824 109.651 98.468 109.627 98.068H110.755C110.787 98.396 110.939 98.664 111.211 98.872C111.491 99.08 111.855 99.184 112.303 99.184C112.719 99.184 113.047 99.092 113.287 98.908C113.527 98.724 113.647 98.492 113.647 98.212C113.647 97.924 113.519 97.712 113.263 97.576C113.007 97.432 112.611 97.292 112.075 97.156C111.587 97.028 111.187 96.9 110.875 96.772C110.571 96.636 110.307 96.44 110.083 96.184C109.867 95.92 109.759 95.576 109.759 95.152C109.759 94.816 109.859 94.508 110.059 94.228C110.259 93.948 110.543 93.728 110.911 93.568C111.279 93.4 111.699 93.316 112.171 93.316C112.899 93.316 113.487 93.5 113.935 93.868C114.383 94.236 114.623 94.74 114.655 95.38H113.563C113.539 95.036 113.399 94.76 113.143 94.552C112.895 94.344 112.559 94.24 112.135 94.24C111.743 94.24 111.431 94.324 111.199 94.492C110.967 94.66 110.851 94.88 110.851 95.152C110.851 95.368 110.919 95.548 111.055 95.692C111.199 95.828 111.375 95.94 111.583 96.028C111.799 96.108 112.095 96.2 112.471 96.304C112.943 96.432 113.327 96.56 113.623 96.688C113.919 96.808 114.171 96.992 114.379 97.24C114.595 97.488 114.707 97.812 114.715 98.212C114.715 98.572 114.615 98.896 114.415 99.184C114.215 99.472 113.931 99.7 113.563 99.868C113.203 100.028 112.787 100.108 112.315 100.108ZM116.82 92.356C116.612 92.356 116.436 92.284 116.292 92.14C116.148 91.996 116.076 91.82 116.076 91.612C116.076 91.404 116.148 91.228 116.292 91.084C116.436 90.94 116.612 90.868 116.82 90.868C117.02 90.868 117.188 90.94 117.324 91.084C117.468 91.228 117.54 91.404 117.54 91.612C117.54 91.82 117.468 91.996 117.324 92.14C117.188 92.284 117.02 92.356 116.82 92.356ZM117.348 93.424V100H116.256V93.424H117.348ZM120.541 94.324V98.2C120.541 98.52 120.609 98.748 120.745 98.884C120.881 99.012 121.117 99.076 121.453 99.076H122.257V100H121.273C120.665 100 120.209 99.86 119.905 99.58C119.601 99.3 119.449 98.84 119.449 98.2V94.324H118.597V93.424H119.449V91.768H120.541V93.424H122.257V94.324H120.541ZM126.448 100.108C125.832 100.108 125.272 99.968 124.768 99.688C124.272 99.408 123.88 99.012 123.592 98.5C123.312 97.98 123.172 97.38 123.172 96.7C123.172 96.028 123.316 95.436 123.604 94.924C123.9 94.404 124.3 94.008 124.804 93.736C125.308 93.456 125.872 93.316 126.496 93.316C127.12 93.316 127.684 93.456 128.188 93.736C128.692 94.008 129.088 94.4 129.376 94.912C129.672 95.424 129.82 96.02 129.82 96.7C129.82 97.38 129.668 97.98 129.364 98.5C129.068 99.012 128.664 99.408 128.152 99.688C127.64 99.968 127.072 100.108 126.448 100.108ZM126.448 99.148C126.84 99.148 127.208 99.056 127.552 98.872C127.896 98.688 128.172 98.412 128.38 98.044C128.596 97.676 128.704 97.228 128.704 96.7C128.704 96.172 128.6 95.724 128.392 95.356C128.184 94.988 127.912 94.716 127.576 94.54C127.24 94.356 126.876 94.264 126.484 94.264C126.084 94.264 125.716 94.356 125.38 94.54C125.052 94.716 124.788 94.988 124.588 95.356C124.388 95.724 124.288 96.172 124.288 96.7C124.288 97.236 124.384 97.688 124.576 98.056C124.776 98.424 125.04 98.7 125.368 98.884C125.696 99.06 126.056 99.148 126.448 99.148ZM132.348 94.492C132.54 94.116 132.812 93.824 133.164 93.616C133.524 93.408 133.96 93.304 134.472 93.304V94.432H134.184C132.96 94.432 132.348 95.096 132.348 96.424V100H131.256V93.424H132.348V94.492ZM138.061 100.108C137.557 100.108 137.105 100.024 136.705 99.856C136.305 99.68 135.989 99.44 135.757 99.136C135.525 98.824 135.397 98.468 135.373 98.068H136.501C136.533 98.396 136.685 98.664 136.957 98.872C137.237 99.08 137.601 99.184 138.049 99.184C138.465 99.184 138.793 99.092 139.033 98.908C139.273 98.724 139.393 98.492 139.393 98.212C139.393 97.924 139.265 97.712 139.009 97.576C138.753 97.432 138.357 97.292 137.821 97.156C137.333 97.028 136.933 96.9 136.621 96.772C136.317 96.636 136.053 96.44 135.829 96.184C135.613 95.92 135.505 95.576 135.505 95.152C135.505 94.816 135.605 94.508 135.805 94.228C136.005 93.948 136.289 93.728 136.657 93.568C137.025 93.4 137.445 93.316 137.917 93.316C138.645 93.316 139.233 93.5 139.681 93.868C140.129 94.236 140.369 94.74 140.401 95.38H139.309C139.285 95.036 139.145 94.76 138.889 94.552C138.641 94.344 138.305 94.24 137.881 94.24C137.489 94.24 137.177 94.324 136.945 94.492C136.713 94.66 136.597 94.88 136.597 95.152C136.597 95.368 136.665 95.548 136.801 95.692C136.945 95.828 137.121 95.94 137.329 96.028C137.545 96.108 137.841 96.2 138.217 96.304C138.689 96.432 139.073 96.56 139.369 96.688C139.665 96.808 139.917 96.992 140.125 97.24C140.341 97.488 140.453 97.812 140.461 98.212C140.461 98.572 140.361 98.896 140.161 99.184C139.961 99.472 139.677 99.7 139.309 99.868C138.949 100.028 138.533 100.108 138.061 100.108Z" fill="#FDB400"/>
<path d="M293.436 89.636L291.012 98H289.788L287.844 91.268L285.828 98L284.616 98.012L282.276 89.636H283.44L285.264 96.728L287.28 89.636H288.504L290.424 96.704L292.26 89.636H293.436ZM300.631 94.46C300.631 94.668 300.619 94.888 300.595 95.12H295.339C295.379 95.768 295.599 96.276 295.999 96.644C296.407 97.004 296.899 97.184 297.475 97.184C297.947 97.184 298.339 97.076 298.651 96.86C298.971 96.636 299.195 96.34 299.323 95.972H300.499C300.323 96.604 299.971 97.12 299.443 97.52C298.915 97.912 298.259 98.108 297.475 98.108C296.851 98.108 296.291 97.968 295.795 97.688C295.307 97.408 294.923 97.012 294.643 96.5C294.363 95.98 294.223 95.38 294.223 94.7C294.223 94.02 294.359 93.424 294.631 92.912C294.903 92.4 295.283 92.008 295.771 91.736C296.267 91.456 296.835 91.316 297.475 91.316C298.099 91.316 298.651 91.452 299.131 91.724C299.611 91.996 299.979 92.372 300.235 92.852C300.499 93.324 300.631 93.86 300.631 94.46ZM299.503 94.232C299.503 93.816 299.411 93.46 299.227 93.164C299.043 92.86 298.791 92.632 298.471 92.48C298.159 92.32 297.811 92.24 297.427 92.24C296.875 92.24 296.403 92.416 296.011 92.768C295.627 93.12 295.407 93.608 295.351 94.232H299.503ZM308.072 94.46C308.072 94.668 308.06 94.888 308.036 95.12H302.78C302.82 95.768 303.04 96.276 303.44 96.644C303.848 97.004 304.34 97.184 304.916 97.184C305.388 97.184 305.78 97.076 306.092 96.86C306.412 96.636 306.636 96.34 306.764 95.972H307.94C307.764 96.604 307.412 97.12 306.884 97.52C306.356 97.912 305.7 98.108 304.916 98.108C304.292 98.108 303.732 97.968 303.236 97.688C302.748 97.408 302.364 97.012 302.084 96.5C301.804 95.98 301.664 95.38 301.664 94.7C301.664 94.02 301.8 93.424 302.072 92.912C302.344 92.4 302.724 92.008 303.212 91.736C303.708 91.456 304.276 91.316 304.916 91.316C305.54 91.316 306.092 91.452 306.572 91.724C307.052 91.996 307.42 92.372 307.676 92.852C307.94 93.324 308.072 93.86 308.072 94.46ZM306.944 94.232C306.944 93.816 306.852 93.46 306.668 93.164C306.484 92.86 306.232 92.632 305.912 92.48C305.6 92.32 305.252 92.24 304.868 92.24C304.316 92.24 303.844 92.416 303.452 92.768C303.068 93.12 302.848 93.608 302.792 94.232H306.944ZM313.186 98L310.606 95.096V98H309.514V89.12H310.606V94.34L313.138 91.424H314.662L311.566 94.7L314.674 98H313.186Z" fill="#C4BCBC"/>
<path d="M270.084 114.176L266.748 122H265.644L269.028 114.284H264.396V113.348H270.084V114.176ZM271.163 121.124C272.179 120.308 272.975 119.64 273.551 119.12C274.127 118.592 274.611 118.044 275.003 117.476C275.403 116.9 275.603 116.336 275.603 115.784C275.603 115.264 275.475 114.856 275.219 114.56C274.971 114.256 274.567 114.104 274.007 114.104C273.463 114.104 273.039 114.276 272.735 114.62C272.439 114.956 272.279 115.408 272.255 115.976H271.199C271.231 115.08 271.503 114.388 272.015 113.9C272.527 113.412 273.187 113.168 273.995 113.168C274.819 113.168 275.471 113.396 275.951 113.852C276.439 114.308 276.683 114.936 276.683 115.736C276.683 116.4 276.483 117.048 276.083 117.68C275.691 118.304 275.243 118.856 274.739 119.336C274.235 119.808 273.591 120.36 272.807 120.992H276.935V121.904H271.163V121.124ZM279.781 117.488C279.333 117.312 278.989 117.056 278.749 116.72C278.509 116.384 278.389 115.976 278.389 115.496C278.389 115.064 278.497 114.676 278.713 114.332C278.929 113.98 279.249 113.704 279.673 113.504C280.105 113.296 280.625 113.192 281.233 113.192C281.841 113.192 282.357 113.296 282.781 113.504C283.213 113.704 283.537 113.98 283.753 114.332C283.977 114.676 284.089 115.064 284.089 115.496C284.089 115.96 283.965 116.368 283.717 116.72C283.469 117.064 283.129 117.32 282.697 117.488C283.193 117.64 283.585 117.908 283.873 118.292C284.169 118.668 284.317 119.124 284.317 119.66C284.317 120.18 284.189 120.636 283.933 121.028C283.677 121.412 283.313 121.712 282.841 121.928C282.377 122.136 281.841 122.24 281.233 122.24C280.625 122.24 280.089 122.136 279.625 121.928C279.169 121.712 278.813 121.412 278.557 121.028C278.301 120.636 278.173 120.18 278.173 119.66C278.173 119.124 278.317 118.664 278.605 118.28C278.893 117.896 279.285 117.632 279.781 117.488ZM283.033 115.628C283.033 115.14 282.873 114.764 282.553 114.5C282.233 114.236 281.793 114.104 281.233 114.104C280.681 114.104 280.245 114.236 279.925 114.5C279.605 114.764 279.445 115.144 279.445 115.64C279.445 116.088 279.609 116.448 279.937 116.72C280.273 116.992 280.705 117.128 281.233 117.128C281.769 117.128 282.201 116.992 282.529 116.72C282.865 116.44 283.033 116.076 283.033 115.628ZM281.233 117.968C280.641 117.968 280.157 118.108 279.781 118.388C279.405 118.66 279.217 119.072 279.217 119.624C279.217 120.136 279.397 120.548 279.757 120.86C280.125 121.172 280.617 121.328 281.233 121.328C281.849 121.328 282.337 121.172 282.697 120.86C283.057 120.548 283.237 120.136 283.237 119.624C283.237 119.088 283.053 118.68 282.685 118.4C282.317 118.112 281.833 117.968 281.233 117.968ZM285.767 117.572C285.767 116.196 285.991 115.124 286.439 114.356C286.887 113.58 287.671 113.192 288.791 113.192C289.903 113.192 290.683 113.58 291.131 114.356C291.579 115.124 291.803 116.196 291.803 117.572C291.803 118.972 291.579 120.06 291.131 120.836C290.683 121.612 289.903 122 288.791 122C287.671 122 286.887 121.612 286.439 120.836C285.991 120.06 285.767 118.972 285.767 117.572ZM290.723 117.572C290.723 116.876 290.675 116.288 290.579 115.808C290.491 115.32 290.303 114.928 290.015 114.632C289.735 114.336 289.327 114.188 288.791 114.188C288.247 114.188 287.831 114.336 287.543 114.632C287.263 114.928 287.075 115.32 286.979 115.808C286.891 116.288 286.847 116.876 286.847 117.572C286.847 118.292 286.891 118.896 286.979 119.384C287.075 119.872 287.263 120.264 287.543 120.56C287.831 120.856 288.247 121.004 288.791 121.004C289.327 121.004 289.735 120.856 290.015 120.56C290.303 120.264 290.491 119.872 290.579 119.384C290.675 118.896 290.723 118.292 290.723 117.572ZM297.75 113.636V118.928C297.75 119.672 297.93 120.224 298.29 120.584C298.658 120.944 299.166 121.124 299.814 121.124C300.454 121.124 300.954 120.944 301.314 120.584C301.682 120.224 301.866 119.672 301.866 118.928V113.636H302.958V118.916C302.958 119.612 302.818 120.2 302.538 120.68C302.258 121.152 301.878 121.504 301.398 121.736C300.926 121.968 300.394 122.084 299.802 122.084C299.21 122.084 298.674 121.968 298.194 121.736C297.722 121.504 297.346 121.152 297.066 120.68C296.794 120.2 296.658 119.612 296.658 118.916V113.636H297.75ZM305.871 116.648C306.095 116.256 306.423 115.936 306.855 115.688C307.287 115.44 307.779 115.316 308.331 115.316C308.923 115.316 309.455 115.456 309.927 115.736C310.399 116.016 310.771 116.412 311.043 116.924C311.315 117.428 311.451 118.016 311.451 118.688C311.451 119.352 311.315 119.944 311.043 120.464C310.771 120.984 310.395 121.388 309.915 121.676C309.443 121.964 308.915 122.108 308.331 122.108C307.763 122.108 307.263 121.984 306.831 121.736C306.407 121.488 306.087 121.172 305.871 120.788V122H304.779V113.12H305.871V116.648ZM310.335 118.688C310.335 118.192 310.235 117.76 310.035 117.392C309.835 117.024 309.563 116.744 309.219 116.552C308.883 116.36 308.511 116.264 308.103 116.264C307.703 116.264 307.331 116.364 306.987 116.564C306.651 116.756 306.379 117.04 306.171 117.416C305.971 117.784 305.871 118.212 305.871 118.7C305.871 119.196 305.971 119.632 306.171 120.008C306.379 120.376 306.651 120.66 306.987 120.86C307.331 121.052 307.703 121.148 308.103 121.148C308.511 121.148 308.883 121.052 309.219 120.86C309.563 120.66 309.835 120.376 310.035 120.008C310.235 119.632 310.335 119.192 310.335 118.688ZM313.453 114.356C313.245 114.356 313.069 114.284 312.925 114.14C312.781 113.996 312.709 113.82 312.709 113.612C312.709 113.404 312.781 113.228 312.925 113.084C313.069 112.94 313.245 112.868 313.453 112.868C313.653 112.868 313.821 112.94 313.957 113.084C314.101 113.228 314.173 113.404 314.173 113.612C314.173 113.82 314.101 113.996 313.957 114.14C313.821 114.284 313.653 114.356 313.453 114.356ZM313.981 115.424V122H312.889V115.424H313.981ZM315.434 118.688C315.434 118.016 315.57 117.428 315.842 116.924C316.114 116.412 316.486 116.016 316.958 115.736C317.438 115.456 317.974 115.316 318.566 115.316C319.134 115.316 319.63 115.444 320.054 115.7C320.486 115.948 320.802 116.256 321.002 116.624V115.424H322.106V125.12H321.002V120.788C320.794 121.156 320.474 121.468 320.042 121.724C319.61 121.98 319.106 122.108 318.53 122.108C317.954 122.108 317.43 121.964 316.958 121.676C316.486 121.388 316.114 120.984 315.842 120.464C315.57 119.944 315.434 119.352 315.434 118.688ZM321.002 118.7C321.002 118.204 320.902 117.772 320.702 117.404C320.502 117.036 320.23 116.756 319.886 116.564C319.55 116.364 319.178 116.264 318.77 116.264C318.362 116.264 317.99 116.36 317.654 116.552C317.318 116.744 317.05 117.024 316.85 117.392C316.65 117.76 316.55 118.192 316.55 118.688C316.55 119.192 316.65 119.632 316.85 120.008C317.05 120.376 317.318 120.66 317.654 120.86C317.99 121.052 318.362 121.148 318.77 121.148C319.178 121.148 319.55 121.052 319.886 120.86C320.23 120.66 320.502 120.376 320.702 120.008C320.902 119.632 321.002 119.196 321.002 118.7ZM329.783 115.424V122H328.691V121.028C328.483 121.364 328.191 121.628 327.815 121.82C327.447 122.004 327.039 122.096 326.591 122.096C326.079 122.096 325.619 121.992 325.211 121.784C324.803 121.568 324.479 121.248 324.239 120.824C324.007 120.4 323.891 119.884 323.891 119.276V115.424H324.971V119.132C324.971 119.78 325.135 120.28 325.463 120.632C325.791 120.976 326.239 121.148 326.807 121.148C327.391 121.148 327.851 120.968 328.187 120.608C328.523 120.248 328.691 119.724 328.691 119.036V115.424H329.783ZM337.627 118.46C337.627 118.668 337.615 118.888 337.591 119.12H332.335C332.375 119.768 332.595 120.276 332.995 120.644C333.403 121.004 333.895 121.184 334.471 121.184C334.943 121.184 335.335 121.076 335.647 120.86C335.967 120.636 336.191 120.34 336.319 119.972H337.495C337.319 120.604 336.967 121.12 336.439 121.52C335.911 121.912 335.255 122.108 334.471 122.108C333.847 122.108 333.287 121.968 332.791 121.688C332.303 121.408 331.919 121.012 331.639 120.5C331.359 119.98 331.219 119.38 331.219 118.7C331.219 118.02 331.355 117.424 331.627 116.912C331.899 116.4 332.279 116.008 332.767 115.736C333.263 115.456 333.831 115.316 334.471 115.316C335.095 115.316 335.647 115.452 336.127 115.724C336.607 115.996 336.975 116.372 337.231 116.852C337.495 117.324 337.627 117.86 337.627 118.46ZM336.499 118.232C336.499 117.816 336.407 117.46 336.223 117.164C336.039 116.86 335.787 116.632 335.467 116.48C335.155 116.32 334.807 116.24 334.423 116.24C333.871 116.24 333.399 116.416 333.007 116.768C332.623 117.12 332.403 117.608 332.347 118.232H336.499Z" fill="#FFA028"/>
<path d="M98.576 114.4V112.336H102.432V124H100.128V114.4H98.576ZM112.069 114.032L107.813 124H105.541L109.829 114.288H104.357V112.368H112.069V114.032ZM115.363 117.824C114.296 117.269 113.763 116.411 113.763 115.248C113.763 114.672 113.907 114.149 114.195 113.68C114.493 113.2 114.936 112.821 115.523 112.544C116.12 112.256 116.845 112.112 117.699 112.112C118.552 112.112 119.272 112.256 119.859 112.544C120.456 112.821 120.899 113.2 121.187 113.68C121.485 114.149 121.635 114.672 121.635 115.248C121.635 115.835 121.491 116.352 121.203 116.8C120.915 117.237 120.531 117.579 120.051 117.824C120.637 118.08 121.096 118.453 121.427 118.944C121.757 119.435 121.923 120.016 121.923 120.688C121.923 121.413 121.736 122.048 121.363 122.592C121 123.125 120.499 123.536 119.859 123.824C119.219 124.112 118.499 124.256 117.699 124.256C116.899 124.256 116.179 124.112 115.539 123.824C114.909 123.536 114.408 123.125 114.035 122.592C113.672 122.048 113.491 121.413 113.491 120.688C113.491 120.016 113.656 119.435 113.987 118.944C114.317 118.443 114.776 118.069 115.363 117.824ZM119.459 115.568C119.459 115.045 119.299 114.64 118.979 114.352C118.669 114.064 118.243 113.92 117.699 113.92C117.165 113.92 116.739 114.064 116.419 114.352C116.109 114.64 115.955 115.051 115.955 115.584C115.955 116.064 116.115 116.448 116.435 116.736C116.765 117.024 117.187 117.168 117.699 117.168C118.211 117.168 118.632 117.024 118.963 116.736C119.293 116.437 119.459 116.048 119.459 115.568ZM117.699 118.8C117.091 118.8 116.595 118.955 116.211 119.264C115.837 119.573 115.651 120.016 115.651 120.592C115.651 121.125 115.832 121.563 116.195 121.904C116.568 122.235 117.069 122.4 117.699 122.4C118.328 122.4 118.824 122.229 119.187 121.888C119.549 121.547 119.731 121.115 119.731 120.592C119.731 120.027 119.544 119.589 119.171 119.28C118.797 118.96 118.307 118.8 117.699 118.8ZM126.396 121.648L124.524 126.144H123.084L124.124 121.648H126.396ZM127.754 118.016C127.754 116.171 128.085 114.725 128.746 113.68C129.418 112.635 130.528 112.112 132.074 112.112C133.621 112.112 134.725 112.635 135.386 113.68C136.058 114.725 136.394 116.171 136.394 118.016C136.394 119.872 136.058 121.328 135.386 122.384C134.725 123.44 133.621 123.968 132.074 123.968C130.528 123.968 129.418 123.44 128.746 122.384C128.085 121.328 127.754 119.872 127.754 118.016ZM134.186 118.016C134.186 117.227 134.133 116.565 134.026 116.032C133.93 115.488 133.728 115.045 133.418 114.704C133.12 114.363 132.672 114.192 132.074 114.192C131.477 114.192 131.024 114.363 130.714 114.704C130.416 115.045 130.213 115.488 130.106 116.032C130.01 116.565 129.962 117.227 129.962 118.016C129.962 118.827 130.01 119.509 130.106 120.064C130.202 120.608 130.405 121.051 130.714 121.392C131.024 121.723 131.477 121.888 132.074 121.888C132.672 121.888 133.125 121.723 133.434 121.392C133.744 121.051 133.946 120.608 134.042 120.064C134.138 119.509 134.186 118.827 134.186 118.016ZM140.05 117.824C138.983 117.269 138.45 116.411 138.45 115.248C138.45 114.672 138.594 114.149 138.882 113.68C139.181 113.2 139.623 112.821 140.21 112.544C140.807 112.256 141.533 112.112 142.386 112.112C143.239 112.112 143.959 112.256 144.546 112.544C145.143 112.821 145.586 113.2 145.874 113.68C146.173 114.149 146.322 114.672 146.322 115.248C146.322 115.835 146.178 116.352 145.89 116.8C145.602 117.237 145.218 117.579 144.738 117.824C145.325 118.08 145.783 118.453 146.114 118.944C146.445 119.435 146.61 120.016 146.61 120.688C146.61 121.413 146.423 122.048 146.05 122.592C145.687 123.125 145.186 123.536 144.546 123.824C143.906 124.112 143.186 124.256 142.386 124.256C141.586 124.256 140.866 124.112 140.226 123.824C139.597 123.536 139.095 123.125 138.722 122.592C138.359 122.048 138.178 121.413 138.178 120.688C138.178 120.016 138.343 119.435 138.674 118.944C139.005 118.443 139.463 118.069 140.05 117.824ZM144.146 115.568C144.146 115.045 143.986 114.64 143.666 114.352C143.357 114.064 142.93 113.92 142.386 113.92C141.853 113.92 141.426 114.064 141.106 114.352C140.797 114.64 140.642 115.051 140.642 115.584C140.642 116.064 140.802 116.448 141.122 116.736C141.453 117.024 141.874 117.168 142.386 117.168C142.898 117.168 143.319 117.024 143.65 116.736C143.981 116.437 144.146 116.048 144.146 115.568ZM142.386 118.8C141.778 118.8 141.282 118.955 140.898 119.264C140.525 119.573 140.338 120.016 140.338 120.592C140.338 121.125 140.519 121.563 140.882 121.904C141.255 122.235 141.757 122.4 142.386 122.4C143.015 122.4 143.511 122.229 143.874 121.888C144.237 121.547 144.418 121.115 144.418 120.592C144.418 120.027 144.231 119.589 143.858 119.28C143.485 118.96 142.994 118.8 142.386 118.8ZM148.379 118.016C148.379 116.171 148.71 114.725 149.371 113.68C150.043 112.635 151.153 112.112 152.699 112.112C154.246 112.112 155.35 112.635 156.011 113.68C156.683 114.725 157.019 116.171 157.019 118.016C157.019 119.872 156.683 121.328 156.011 122.384C155.35 123.44 154.246 123.968 152.699 123.968C151.153 123.968 150.043 123.44 149.371 122.384C148.71 121.328 148.379 119.872 148.379 118.016ZM154.811 118.016C154.811 117.227 154.758 116.565 154.651 116.032C154.555 115.488 154.353 115.045 154.043 114.704C153.745 114.363 153.297 114.192 152.699 114.192C152.102 114.192 151.649 114.363 151.339 114.704C151.041 115.045 150.838 115.488 150.731 116.032C150.635 116.565 150.587 117.227 150.587 118.016C150.587 118.827 150.635 119.509 150.731 120.064C150.827 120.608 151.03 121.051 151.339 121.392C151.649 121.723 152.102 121.888 152.699 121.888C153.297 121.888 153.75 121.723 154.059 121.392C154.369 121.051 154.571 120.608 154.667 120.064C154.763 119.509 154.811 118.827 154.811 118.016Z" fill="#0F192D"/>
<line x1="126" y1="167.5" x2="332" y2="167.5" stroke="#EFEBEB"/>
<line x1="126" y1="200.5" x2="332" y2="200.5" stroke="#EFEBEB"/>
<line x1="126" y1="235.5" x2="332" y2="235.5" stroke="#EFEBEB"/>
<line x1="125.998" y1="269.5" x2="331.998" y2="268.5" stroke="#EFEBEB"/>
<rect x="126" y="217" width="14" height="52" fill="#FF5670"/>
<rect x="157" y="167" width="14" height="102" fill="#3641B7"/>
<rect x="190" y="197" width="14" height="72" fill="#FF5670"/>
<rect x="252" y="186" width="14" height="83" fill="#FF5670"/>
<rect x="285" y="209" width="14" height="60" fill="#3641B7"/>
<rect x="318" y="223" width="14" height="46" fill="#FF5670"/>
<rect x="221" y="238" width="14" height="31" fill="#3641B7"/>
<path d="M317 91L319 95H320L322 91" stroke="#FFA028"/>
<defs>
<filter id="filter0_d_1_121" x="0" y="0" width="428" height="402" filterUnits="userSpaceOnUse" color-interpolation-filters="sRGB">
<feFlood flood-opacity="0" result="BackgroundImageFix"/>
<feColorMatrix in="SourceAlpha" type="matrix" values="0 0 0 0 0 0 0 0 0 0 0 0 0 0 0 0 0 0 127 0" result="hardAlpha"/>
<feOffset dy="20"/>
<feGaussianBlur stdDeviation="35"/>
<feComposite in2="hardAlpha" operator="out"/>
<feColorMatrix type="matrix" values="0 0 0 0 0 0 0 0 0 0 0 0 0 0 0 0 0 0 0.09 0"/>
<feBlend mode="normal" in2="BackgroundImageFix" result="effect1_dropShadow_1_121"/>
<feBlend mode="normal" in="SourceGraphic" in2="effect1_dropShadow_1_121" result="shape"/>
</filter>
</defs>
</svg>
